<svg width="59" height="59" viewBox="0 0 59 59" fill="none" xmlns="http://www.w3.org/2000/svg">
<path fill-rule="evenodd" clip-rule="evenodd" d="M24.7273 42.1886C24.8671 42.118 24.9983 42.0243 25.115 41.9075L45.9725 21.05C46.563 20.4596 46.5649 19.5008 45.9747 18.9106L44.9028 17.8387C44.3146 17.2505 43.3548 17.2495 42.7634 17.8409L24.0431 36.5611L15.7556 28.2736C15.1615 27.6795 14.2057 27.6806 13.6156 28.2708L12.5436 29.3428C11.9554 29.9309 11.9547 30.8911 12.5465 31.4828L22.9705 41.9069C23.4483 42.3847 24.16 42.4775 24.7273 42.1886ZM0 29.5C0 13.2076 13.204 0 29.5 0C45.7924 0 59 13.204 59 29.5C59 45.7924 45.796 59 29.5 59C13.2076 59 0 45.796 0 29.5Z" fill="url(#paint0_linear_1_702)"/>
<defs>
<linearGradient id="paint0_linear_1_702" x1="26.3947" y1="2.38538" x2="46.8976" y2="68.6009" gradientUnits="userSpaceOnUse">
<stop stop-color="#00CA00"/>
<stop offset="1" stop-color="#064110"/>
</linearGradient>
</defs>
</svg>
